<svg width="198" height="23" viewBox="0 0 198 23" fill="none" xmlns="http://www.w3.org/2000/svg">
<path d="M0.578789 12.13C0.578789 9.95 1.00879 7.99 1.86879 6.25C2.74879 4.51 4.08879 3.11 5.88879 2.05C7.68879 0.969999 9.82879 0.429999 12.3088 0.429999C13.2688 0.429999 14.1688 0.509999 15.0088 0.669999C15.8488 0.809999 16.5388 0.979999 17.0788 1.18C17.6188 1.38 18.0888 1.59 18.4888 1.81C18.8888 2.01 19.1888 2.19 19.3888 2.35C19.6088 2.49 19.7388 2.56 19.7788 2.56C19.8388 2.56 19.9688 2.49 20.1688 2.35C20.3888 2.19 20.5388 2.11 20.6188 2.11C20.9188 2.11 21.0688 2.31 21.0688 2.71C21.0888 3.29 21.1288 3.9 21.1888 4.54C21.2688 5.18 21.3388 5.71 21.3988 6.13C21.4588 6.55 21.4888 6.8 21.4888 6.88C21.4888 7.22 21.3688 7.39 21.1288 7.39C20.8888 7.39 20.7188 7.27 20.6188 7.03C19.9188 5.51 18.7488 4.23 17.1088 3.19C15.4688 2.13 13.7788 1.6 12.0388 1.6C9.53879 1.6 7.46879 2.39 5.82879 3.97C4.20879 5.53 3.39879 7.7 3.39879 10.48C3.39879 12.32 3.73879 14.05 4.41879 15.67C5.09879 17.29 6.12879 18.63 7.50879 19.69C8.90879 20.75 10.5088 21.28 12.3088 21.28C13.8488 21.28 15.2388 20.93 16.4788 20.23C17.7388 19.53 18.4388 18.73 18.5788 17.83C18.6388 17.35 18.6688 16.09 18.6688 14.05C18.6688 13.27 18.4988 12.71 18.1588 12.37C17.9188 12.13 17.4788 11.97 16.8388 11.89C16.2388 11.83 15.8888 11.71 15.7888 11.53C15.7488 11.45 15.7288 11.35 15.7288 11.23C15.7288 11.01 15.9088 10.9 16.2688 10.9C16.5288 10.9 17.0888 10.93 17.9488 10.99C18.8088 11.03 19.3588 11.05 19.5988 11.05C19.9988 11.05 20.4288 11.05 20.8888 11.05C21.3488 11.03 21.7188 11.02 21.9988 11.02H22.4488C22.7688 11.02 22.9288 11.11 22.9288 11.29C22.9288 11.43 22.6688 11.61 22.1488 11.83C21.6488 12.05 21.3688 12.33 21.3088 12.67C21.1688 13.53 21.0988 14.65 21.0988 16.03C21.0988 16.63 21.1088 17.16 21.1288 17.62C21.1488 18.08 21.1588 18.41 21.1588 18.61C21.1788 18.79 21.1988 18.95 21.2188 19.09C21.2388 19.23 21.2488 19.33 21.2488 19.39C21.2488 19.49 21.1688 19.57 21.0088 19.63C20.8688 19.67 20.6288 19.74 20.2888 19.84C19.9488 19.92 19.6388 20.04 19.3588 20.2L19.1488 20.32C19.0088 20.42 18.8688 20.51 18.7288 20.59C18.5888 20.67 18.3988 20.77 18.1588 20.89C17.9388 21.01 17.7088 21.13 17.4688 21.25C17.2288 21.37 16.9588 21.5 16.6588 21.64C16.3588 21.76 16.0488 21.87 15.7288 21.97C15.4088 22.07 15.0788 22.16 14.7388 22.24C14.3988 22.32 14.0388 22.38 13.6588 22.42C13.2988 22.48 12.9388 22.51 12.5788 22.51C10.3988 22.51 8.49879 22.22 6.87879 21.64C5.27879 21.04 4.03879 20.24 3.15879 19.24C2.27879 18.22 1.62879 17.12 1.20879 15.94C0.788789 14.76 0.578789 13.49 0.578789 12.13ZM24.4096 1.09C24.4096 0.989999 24.4196 0.919999 24.4396 0.879998C24.4596 0.839999 24.5196 0.799999 24.6196 0.76C24.7196 0.719999 24.8796 0.699999 25.0996 0.699999C25.3196 0.699999 25.7796 0.719999 26.4796 0.76C27.1796 0.799999 27.8496 0.819999 28.4896 0.819999C28.8896 0.819999 29.2496 0.809999 29.5696 0.789999C29.9096 0.77 30.4896 0.76 31.3096 0.76C31.7296 0.76 31.9396 0.9 31.9396 1.18C31.9396 1.36 31.8696 1.47 31.7296 1.51C31.5896 1.55 31.4096 1.58 31.1896 1.6C30.9896 1.62 30.7796 1.69 30.5596 1.81C30.3596 1.93 30.1896 2.23 30.0496 2.71C29.9096 3.17 29.8396 3.8 29.8396 4.6V5.44C29.8396 6.38 29.8296 7.57 29.8096 9.01C29.8096 10.43 29.8096 11.4 29.8096 11.92C29.8096 12.54 29.8096 13.01 29.8096 13.33C29.8296 13.65 29.8596 14.12 29.8996 14.74C29.9396 15.34 29.9896 15.82 30.0496 16.18C30.1296 16.52 30.2496 16.95 30.4096 17.47C30.5696 17.97 30.7596 18.37 30.9796 18.67C31.2196 18.97 31.5096 19.3 31.8496 19.66C32.2096 20.02 32.6196 20.3 33.0796 20.5C33.5396 20.68 34.0796 20.84 34.6996 20.98C35.3196 21.1 36.0096 21.16 36.7696 21.16C37.4096 21.16 37.9096 21.15 38.2696 21.13C38.6296 21.11 39.1196 21.05 39.7396 20.95C40.3796 20.83 40.8796 20.67 41.2396 20.47C41.6196 20.25 42.0396 19.93 42.4996 19.51C42.9796 19.07 43.3496 18.54 43.6096 17.92C43.8696 17.3 44.0896 16.51 44.2696 15.55C44.4496 14.59 44.5396 13.5 44.5396 12.28C44.5396 10.26 44.5296 8.72 44.5096 7.66C44.5096 6.6 44.5096 6.02 44.5096 5.92C44.5096 5.22 44.4896 4.67 44.4496 4.27C44.4296 3.87 44.3296 3.43 44.1496 2.95C43.9896 2.47 43.7496 2.12 43.4296 1.9C43.2296 1.76 42.9696 1.67 42.6496 1.63C42.3296 1.57 42.0696 1.53 41.8696 1.51C41.6696 1.47 41.5696 1.38 41.5696 1.24C41.5696 0.92 41.7696 0.76 42.1696 0.76C42.2896 0.76 42.6796 0.77 43.3396 0.789999C43.9996 0.809999 44.3796 0.819999 44.4796 0.819999C44.9596 0.819999 45.4696 0.809999 46.0096 0.789999C46.5496 0.749999 46.8896 0.729998 47.0296 0.729998C47.4496 0.729998 47.6596 0.859999 47.6596 1.12C47.6596 1.28 47.4396 1.49 46.9996 1.75C46.5796 1.99 46.3196 2.21 46.2196 2.41C45.9996 2.83 45.8896 3.49 45.8896 4.39C45.8896 4.53 45.8896 4.82 45.8896 5.26C45.9096 5.68 45.9196 6.06 45.9196 6.4C45.9196 10.24 45.7596 13.18 45.4396 15.22C45.1196 17.26 44.6296 18.75 43.9696 19.69C43.3296 20.61 42.3596 21.35 41.0596 21.91C39.9996 22.35 38.5696 22.57 36.7696 22.57C33.4296 22.57 31.0596 21.93 29.6596 20.65C28.5596 19.63 27.8796 18.41 27.6196 16.99C27.3596 15.55 27.2296 13.08 27.2296 9.58V9.07C27.2296 8.29 27.2396 7.43 27.2596 6.49C27.2796 5.55 27.2896 4.97 27.2896 4.75C27.2896 3.65 27.1596 2.9 26.8996 2.5C26.6396 2.08 26.0296 1.8 25.0696 1.66C24.6296 1.6 24.4096 1.41 24.4096 1.09ZM48.8725 1.15C48.8725 0.849999 49.1525 0.699999 49.7125 0.699999C49.9125 0.699999 50.3725 0.719999 51.0925 0.76C51.8125 0.799999 52.4825 0.819999 53.1025 0.819999C53.4825 0.819999 53.8425 0.809999 54.1825 0.789999C54.5425 0.77 55.0625 0.76 55.7425 0.76C56.2825 0.76 56.5525 0.9 56.5525 1.18C56.5525 1.34 56.0925 1.61 55.1725 1.99C54.5325 2.25 54.2125 3.4 54.2125 5.44C54.2125 8.14 54.1925 10.53 54.1525 12.61C54.1325 14.67 54.1225 15.98 54.1225 16.54C54.1225 18.22 54.3725 19.43 54.8725 20.17C55.3125 20.79 55.7925 21.1 56.3125 21.1C56.3525 21.1 56.4525 21.11 56.6125 21.13C56.7725 21.13 56.8725 21.13 56.9125 21.13C57.0525 21.13 57.1925 21.17 57.3325 21.25C57.4725 21.31 57.5425 21.38 57.5425 21.46C57.5425 21.68 57.4825 21.83 57.3625 21.91C57.2625 21.97 57.0725 22 56.7925 22C56.1925 22 55.6325 21.98 55.1125 21.94C54.6125 21.9 54.2225 21.88 53.9425 21.88C53.3825 21.88 52.7725 21.91 52.1125 21.97C51.4525 22.01 50.9625 22.03 50.6425 22.03C49.7425 22.03 49.2925 21.88 49.2925 21.58C49.2925 21.4 49.3825 21.28 49.5625 21.22C49.7625 21.14 49.9825 21.09 50.2225 21.07C50.4625 21.03 50.7125 20.9 50.9725 20.68C51.2325 20.44 51.4125 20.1 51.5125 19.66C51.5525 19.52 51.6125 18.39 51.6925 16.27C51.7925 14.13 51.8425 12.59 51.8425 11.65V9.94C51.8425 9.68 51.8425 9.19 51.8425 8.47C51.8625 7.73 51.8725 7.14 51.8725 6.7V5.32C51.8725 4.44 51.8325 3.71 51.7525 3.13C51.6925 2.65 51.4225 2.28 50.9425 2.02C50.4825 1.76 50.0025 1.62 49.5025 1.6C49.0825 1.58 48.8725 1.43 48.8725 1.15ZM58.7162 1.15C58.7162 0.789998 58.9862 0.609998 59.5262 0.609998C59.6062 0.609998 59.7362 0.619999 59.9162 0.64C60.0962 0.659999 60.2362 0.669999 60.3362 0.669999C60.5362 0.669999 60.9062 0.689999 61.4462 0.729998C62.0062 0.769999 62.5062 0.789999 62.9462 0.789999C63.5662 0.789999 64.2262 0.769999 64.9262 0.729998C65.6262 0.689999 66.0162 0.669999 66.0962 0.669999C66.4362 0.669999 66.6062 0.769999 66.6062 0.969999C66.6062 1.25 66.4862 1.44 66.2462 1.54C66.0062 1.62 65.7362 1.68 65.4362 1.72C65.1562 1.74 64.8762 1.96 64.5962 2.38C64.3362 2.78 64.1862 3.39 64.1462 4.21C64.1062 4.99 64.0562 7.17 63.9962 10.75C63.9362 14.33 63.9062 16.33 63.9062 16.75V17.95C63.9062 19.39 64.1462 20.18 64.6262 20.32C65.1262 20.48 65.5562 20.56 65.9162 20.56C67.4162 20.56 68.7262 20.49 69.8462 20.35C70.9862 20.21 71.8362 20.04 72.3962 19.84C72.9762 19.62 73.4562 19.39 73.8362 19.15C74.2162 18.89 74.4562 18.66 74.5562 18.46C74.6762 18.24 74.7862 18.06 74.8862 17.92C75.0062 17.78 75.1262 17.71 75.2462 17.71C75.4862 17.71 75.6062 17.88 75.6062 18.22C75.6062 19.08 75.1762 19.95 74.3162 20.83C73.4562 21.71 72.7062 22.15 72.0662 22.15C70.6262 22.15 68.9962 22.1 67.1762 22C65.3762 21.9 64.2562 21.85 63.8162 21.85C63.2562 21.85 62.6062 21.89 61.8662 21.97C61.1462 22.05 60.5462 22.09 60.0662 22.09C59.4862 22.09 59.1962 21.97 59.1962 21.73C59.1962 21.59 59.2462 21.48 59.3462 21.4C59.4662 21.3 59.5762 21.25 59.6762 21.25C59.9762 21.25 60.2662 21.15 60.5462 20.95C60.9062 20.67 61.1662 20.16 61.3262 19.42C61.4862 18.66 61.5662 17.21 61.5662 15.07V11.35C61.5662 10.81 61.5762 9.97 61.5962 8.83C61.6362 7.69 61.6562 6.8 61.6562 6.16C61.6562 5.62 61.6362 4.71 61.5962 3.43C61.5762 2.85 61.3262 2.4 60.8462 2.08C60.3662 1.76 59.8062 1.59 59.1662 1.57C58.9662 1.57 58.8362 1.54 58.7762 1.48C58.7362 1.4 58.7162 1.29 58.7162 1.15ZM76.7924 0.999999C76.7924 0.819999 76.8724 0.719999 77.0324 0.699999C77.2124 0.659999 77.6424 0.64 78.3224 0.64H80.9324C81.4324 0.64 82.3524 0.619999 83.6924 0.579999C85.0324 0.539999 86.0624 0.519999 86.7824 0.519999C88.1624 0.519999 89.5424 0.729999 90.9224 1.15C92.3024 1.57 93.5724 2.18 94.7324 2.98C95.8924 3.76 96.8324 4.79 97.5524 6.07C98.2724 7.33 98.6324 8.74 98.6324 10.3C98.6324 11.7 98.5324 12.92 98.3324 13.96C98.1524 14.98 97.8424 15.87 97.4024 16.63C96.9624 17.37 96.5224 17.98 96.0824 18.46C95.6424 18.92 95.0424 19.47 94.2824 20.11C93.6824 20.59 92.8124 21.04 91.6724 21.46C90.5324 21.88 89.3624 22.09 88.1624 22.09C88.0424 22.09 87.0224 22.06 85.1024 22C83.1824 21.96 81.8024 21.94 80.9624 21.94C80.2624 21.94 79.6124 21.96 79.0124 22C78.4124 22.06 78.0624 22.09 77.9624 22.09C77.4824 22.09 77.2424 21.96 77.2424 21.7C77.2424 21.54 77.2724 21.43 77.3324 21.37C77.4124 21.29 77.5624 21.22 77.7824 21.16C78.0224 21.1 78.1924 21.05 78.2924 21.01C78.6124 20.87 78.9024 20.61 79.1624 20.23C79.4424 19.83 79.5824 19.44 79.5824 19.06C79.5824 17.94 79.5824 16.51 79.5824 14.77C79.6024 13.03 79.6124 11.75 79.6124 10.93C79.6124 10.21 79.6024 9.09 79.5824 7.57C79.5824 6.03 79.5824 4.61 79.5824 3.31C79.5824 2.97 79.4124 2.63 79.0724 2.29C78.7524 1.93 78.3924 1.74 77.9924 1.72C77.7124 1.7 77.5024 1.68 77.3624 1.66C77.2424 1.64 77.1124 1.58 76.9724 1.48C76.8524 1.36 76.7924 1.2 76.7924 0.999999ZM82.1024 17.77C82.1024 18.15 82.1024 18.46 82.1024 18.7C82.1224 18.94 82.1624 19.16 82.2224 19.36C82.3024 19.56 82.3624 19.7 82.4024 19.78C82.4424 19.86 82.5624 19.95 82.7624 20.05C82.9624 20.15 83.1124 20.22 83.2124 20.26C83.3324 20.28 83.5724 20.34 83.9324 20.44C84.2924 20.54 84.5924 20.62 84.8324 20.68C85.5324 20.88 86.2624 20.98 87.0224 20.98H87.6224C88.9824 20.98 90.1424 20.79 91.1024 20.41C92.0624 20.01 92.9824 19.39 93.8624 18.55C95.3424 17.13 96.0824 14.83 96.0824 11.65C96.0824 10.05 95.7624 8.6 95.1224 7.3C94.5024 6 93.6824 4.97 92.6624 4.21C91.6424 3.43 90.5424 2.84 89.3624 2.44C88.1824 2.02 86.9924 1.81 85.7924 1.81C85.2524 1.81 84.8524 1.81 84.5924 1.81C84.3524 1.81 84.0624 1.84 83.7224 1.9C83.4024 1.94 83.1824 1.98 83.0624 2.02C82.9624 2.04 82.8324 2.14 82.6724 2.32C82.5124 2.48 82.4124 2.62 82.3724 2.74C82.3524 2.86 82.3124 3.1 82.2524 3.46C82.2124 3.8 82.1924 4.1 82.1924 4.36C82.1924 4.62 82.1924 5.04 82.1924 5.62C82.1924 6.06 82.1824 7.1 82.1624 8.74C82.1424 10.36 82.1324 11.24 82.1324 11.38C82.1324 12.58 82.1224 13.88 82.1024 15.28C82.1024 16.68 82.1024 17.51 82.1024 17.77ZM106.939 1.15C106.939 0.869998 107.209 0.729998 107.749 0.729998C107.869 0.729998 108.249 0.749999 108.889 0.789999C109.549 0.809999 110.269 0.819999 111.049 0.819999C111.609 0.819999 112.169 0.809999 112.729 0.789999C113.289 0.749999 113.589 0.729998 113.629 0.729998C113.809 0.729998 113.919 0.759999 113.959 0.819999C114.019 0.859999 114.049 0.949999 114.049 1.09C114.049 1.21 113.829 1.38 113.389 1.6C112.969 1.82 112.759 2.12 112.759 2.5C112.759 2.68 112.799 2.9 112.879 3.16C112.959 3.42 113.119 3.83 113.359 4.39C113.599 4.95 113.849 5.53 114.109 6.13C114.389 6.73 114.809 7.66 115.369 8.92C115.929 10.16 116.479 11.4 117.019 12.64C117.159 12.96 117.359 13.44 117.619 14.08C117.899 14.7 118.119 15.21 118.279 15.61C118.459 16.01 118.649 16.44 118.849 16.9C119.049 17.34 119.209 17.67 119.329 17.89C119.469 18.11 119.569 18.22 119.629 18.22C119.709 18.22 120.029 17.6 120.589 16.36C121.149 15.12 121.649 13.95 122.089 12.85C122.169 12.67 122.259 12.47 122.359 12.25C122.479 12.03 122.559 11.85 122.599 11.71C122.659 11.55 122.689 11.39 122.689 11.23C122.689 10.99 122.089 9.53 120.889 6.85C119.689 4.15 118.919 2.61 118.579 2.23C118.499 2.13 118.419 2.05 118.339 1.99C118.259 1.93 118.179 1.88 118.099 1.84C118.039 1.78 117.979 1.74 117.919 1.72C117.879 1.68 117.819 1.66 117.739 1.66C117.659 1.64 117.599 1.63 117.559 1.63C117.539 1.63 117.479 1.63 117.379 1.63C117.299 1.61 117.249 1.6 117.229 1.6C116.669 1.54 116.329 1.49 116.209 1.45C116.089 1.39 116.029 1.28 116.029 1.12C116.029 0.839999 116.319 0.699999 116.899 0.699999C117.019 0.699999 117.409 0.719999 118.069 0.76C118.729 0.799999 119.439 0.819999 120.199 0.819999C120.239 0.819999 120.509 0.799999 121.009 0.76C121.509 0.719999 121.899 0.699999 122.179 0.699999C122.779 0.699999 123.079 0.779999 123.079 0.939999C123.079 1.06 122.969 1.18 122.749 1.3C122.529 1.42 122.309 1.58 122.089 1.78C121.889 1.96 121.789 2.19 121.789 2.47C121.789 2.85 122.099 3.74 122.719 5.14C122.759 5.22 122.889 5.55 123.109 6.13C123.349 6.71 123.559 7.2 123.739 7.6C123.919 7.98 124.049 8.17 124.129 8.17C124.289 8.17 124.689 7.3 125.329 5.56C125.969 3.8 126.289 2.76 126.289 2.44C126.289 2.08 126.139 1.83 125.839 1.69C125.539 1.53 125.239 1.42 124.939 1.36C124.639 1.28 124.489 1.16 124.489 0.999999C124.489 0.779999 124.709 0.669999 125.149 0.669999C125.269 0.669999 125.569 0.679999 126.049 0.699999C126.529 0.719999 126.869 0.729998 127.069 0.729998H127.579C127.859 0.729998 128.389 0.699999 129.169 0.64H129.439C129.699 0.64 129.829 0.74 129.829 0.939999C129.829 1.14 129.639 1.3 129.259 1.42C128.879 1.54 128.619 1.67 128.479 1.81C128.159 2.13 127.879 2.59 127.639 3.19C127.219 4.21 126.719 5.4 126.139 6.76C125.539 8.16 125.189 9 125.089 9.28C124.989 9.56 124.939 9.81 124.939 10.03C124.939 10.19 125.549 11.63 126.769 14.35C127.989 17.07 128.709 18.43 128.929 18.43C129.169 18.43 130.329 15.91 132.409 10.87C134.509 5.81 135.559 3.03 135.559 2.53C135.559 2.21 135.439 1.97 135.199 1.81C134.979 1.63 134.729 1.53 134.449 1.51C134.169 1.47 133.909 1.42 133.669 1.36C133.449 1.28 133.339 1.16 133.339 0.999999C133.339 0.859999 133.369 0.78 133.429 0.76C133.489 0.719999 133.649 0.699999 133.909 0.699999C133.969 0.699999 134.199 0.709999 134.599 0.729998C134.999 0.729998 135.399 0.729998 135.799 0.729998C136.159 0.729998 136.559 0.719999 136.999 0.699999C137.459 0.679999 137.949 0.669999 138.469 0.669999C138.869 0.669999 139.069 0.809999 139.069 1.09C139.069 1.23 139.009 1.34 138.889 1.42C138.789 1.5 138.629 1.6 138.409 1.72C138.189 1.84 137.999 1.98 137.839 2.14C137.739 2.24 137.649 2.34 137.569 2.44C137.509 2.54 137.439 2.67 137.359 2.83C137.279 2.97 137.209 3.09 137.149 3.19C137.109 3.29 137.029 3.47 136.909 3.73C136.809 3.97 136.729 4.16 136.669 4.3C135.129 7.74 133.409 11.6 131.509 15.88C129.989 19.34 129.089 21.36 128.809 21.94C128.529 22.52 128.309 22.81 128.149 22.81C128.049 22.81 127.929 22.68 127.789 22.42C127.649 22.18 127.449 21.77 127.189 21.19C126.949 20.59 126.809 20.24 126.769 20.14C126.569 19.7 126.299 19.09 125.959 18.31C125.639 17.53 125.359 16.87 125.119 16.33C124.899 15.79 124.669 15.24 124.429 14.68C124.189 14.12 123.989 13.7 123.829 13.42C123.669 13.12 123.559 12.97 123.499 12.97C123.299 12.97 122.619 14.35 121.459 17.11C120.319 19.87 119.709 21.41 119.629 21.73C119.609 21.81 119.579 21.89 119.539 21.97C119.519 22.05 119.499 22.12 119.479 22.18C119.459 22.24 119.439 22.3 119.419 22.36C119.399 22.42 119.379 22.47 119.359 22.51C119.339 22.55 119.319 22.59 119.299 22.63C119.299 22.67 119.289 22.7 119.269 22.72C119.249 22.76 119.229 22.79 119.209 22.81C119.189 22.83 119.169 22.84 119.149 22.84C119.129 22.86 119.109 22.87 119.089 22.87C119.069 22.89 119.039 22.9 118.999 22.9C118.819 22.9 118.599 22.61 118.339 22.03C118.079 21.47 117.609 20.36 116.929 18.7C116.249 17.02 115.559 15.41 114.859 13.87C113.699 11.33 112.469 8.46 111.169 5.26C110.789 4.3 110.379 3.55 109.939 3.01C109.499 2.45 109.109 2.1 108.769 1.96C108.429 1.82 108.119 1.74 107.839 1.72C107.559 1.7 107.339 1.66 107.179 1.6C107.019 1.54 106.939 1.39 106.939 1.15ZM136.031 21.76C136.031 21.48 136.181 21.29 136.481 21.19C137.121 20.95 137.681 20.42 138.161 19.6C138.641 18.76 139.831 16.27 141.731 12.13C143.691 7.89 145.421 4.17 146.921 0.969999C147.061 0.669999 147.181 0.479999 147.281 0.399999C147.401 0.319999 147.581 0.279999 147.821 0.279999C148.001 0.279999 148.121 0.319999 148.181 0.399999C148.241 0.479999 148.371 0.809999 148.571 1.39C148.691 1.73 148.791 2.02 148.871 2.26C148.971 2.5 149.121 2.89 149.321 3.43C149.521 3.97 149.741 4.53 149.981 5.11C150.621 6.69 151.721 9.31 153.281 12.97C154.861 16.61 155.721 18.58 155.861 18.88C156.201 19.56 156.581 20.08 157.001 20.44C157.421 20.78 157.781 20.97 158.081 21.01C158.401 21.03 158.661 21.08 158.861 21.16C159.081 21.22 159.191 21.37 159.191 21.61C159.191 21.91 158.921 22.06 158.381 22.06C158.161 22.06 157.731 22.03 157.091 21.97C156.451 21.91 155.981 21.88 155.681 21.88C155.301 21.88 154.811 21.9 154.211 21.94C153.611 21.98 153.171 22 152.891 22C152.271 22 151.871 21.98 151.691 21.94C151.531 21.88 151.451 21.76 151.451 21.58C151.451 21.44 151.531 21.33 151.691 21.25C151.851 21.15 152.021 21.09 152.201 21.07C152.381 21.03 152.551 20.94 152.711 20.8C152.871 20.64 152.951 20.43 152.951 20.17C152.951 19.73 152.701 18.83 152.201 17.47C151.701 16.11 151.281 15.11 150.941 14.47C150.761 14.13 150.351 13.96 149.711 13.96C149.611 13.96 149.171 13.97 148.391 13.99C147.611 14.01 146.841 14.02 146.081 14.02H144.491C143.591 14.02 143.021 14.07 142.781 14.17C142.561 14.27 142.361 14.51 142.181 14.89C142.061 15.15 141.861 15.57 141.581 16.15C141.301 16.71 141.111 17.1 141.011 17.32C140.911 17.54 140.781 17.83 140.621 18.19C140.481 18.53 140.381 18.81 140.321 19.03C140.281 19.23 140.261 19.41 140.261 19.57C140.261 20.03 140.371 20.38 140.591 20.62C140.831 20.86 141.091 21 141.371 21.04C141.651 21.06 141.901 21.11 142.121 21.19C142.361 21.27 142.481 21.41 142.481 21.61C142.481 21.75 142.451 21.86 142.391 21.94C142.331 22 142.191 22.03 141.971 22.03C141.851 22.03 141.501 22.02 140.921 22C140.361 22 139.881 22 139.481 22C139.041 22 138.541 22.02 137.981 22.06C137.441 22.1 137.081 22.12 136.901 22.12C136.321 22.12 136.031 22 136.031 21.76ZM143.561 11.86C143.561 12.12 143.651 12.28 143.831 12.34C144.011 12.4 144.431 12.43 145.091 12.43H146.021L148.871 12.4C149.651 12.4 150.041 12.24 150.041 11.92C150.041 11.66 149.551 10.43 148.571 8.23C147.591 6.01 146.971 4.9 146.711 4.9C146.531 4.9 145.961 6.01 145.001 8.23C144.041 10.43 143.561 11.64 143.561 11.86ZM160.376 1.12C160.376 0.799999 160.666 0.64 161.246 0.64H166.226C166.686 0.64 167.216 0.629999 167.816 0.609998C168.416 0.569999 168.886 0.549999 169.226 0.549999C171.026 0.549999 172.566 1.01 173.846 1.93C175.126 2.83 175.766 4.05 175.766 5.59C175.766 6.61 175.566 7.51 175.166 8.29C174.786 9.05 174.356 9.6 173.876 9.94C173.416 10.28 172.986 10.58 172.586 10.84C172.206 11.08 172.016 11.24 172.016 11.32C172.016 11.56 172.856 12.86 174.536 15.22C176.216 17.56 177.366 19.06 177.986 19.72C178.746 20.66 179.666 21.13 180.746 21.13C181.026 21.13 181.166 21.25 181.166 21.49C181.166 21.79 181.046 21.99 180.806 22.09C180.566 22.19 179.946 22.24 178.946 22.24C178.006 22.24 177.146 22.01 176.366 21.55C175.366 20.97 173.676 18.73 171.296 14.83C171.156 14.61 171.056 14.45 170.996 14.35C170.036 12.79 169.296 12.01 168.776 12.01H168.146H166.316C166.076 12.01 165.926 12.11 165.866 12.31C165.826 12.51 165.806 13.12 165.806 14.14C165.806 15.1 165.806 15.89 165.806 16.51C165.806 17.13 165.806 17.53 165.806 17.71C165.826 17.87 165.836 18.01 165.836 18.13C165.836 18.23 165.836 18.31 165.836 18.37C165.836 19.19 166.026 19.83 166.406 20.29C166.786 20.73 167.206 20.99 167.666 21.07C168.146 21.13 168.576 21.21 168.956 21.31C169.336 21.39 169.526 21.53 169.526 21.73C169.526 22.05 169.346 22.21 168.986 22.21C168.966 22.21 168.276 22.17 166.916 22.09C165.556 22.03 164.816 22 164.696 22C164.116 22 163.426 22.02 162.626 22.06C161.826 22.1 161.416 22.12 161.396 22.12C160.976 22.12 160.766 21.96 160.766 21.64C160.766 21.42 160.896 21.27 161.156 21.19C161.416 21.09 161.706 21.02 162.026 20.98C162.346 20.94 162.636 20.72 162.896 20.32C163.156 19.92 163.286 19.35 163.286 18.61C163.286 18.09 163.286 16.69 163.286 14.41C163.306 12.13 163.316 10.38 163.316 9.16C163.316 7.92 163.306 6.79 163.286 5.77C163.286 4.73 163.286 4.17 163.286 4.09C163.286 3.35 163.136 2.79 162.836 2.41C162.536 2.01 162.196 1.79 161.816 1.75C161.456 1.69 161.126 1.62 160.826 1.54C160.526 1.46 160.376 1.32 160.376 1.12ZM165.806 5.92C165.806 7.98 165.816 9.26 165.836 9.76C165.856 10.24 165.926 10.52 166.046 10.6C166.346 10.78 166.776 10.87 167.336 10.87H167.636H168.506C170.206 10.87 171.416 10.48 172.136 9.7C172.876 8.92 173.246 7.92 173.246 6.7C173.246 5.46 172.756 4.33 171.776 3.31C170.816 2.29 169.356 1.78 167.396 1.78C166.656 1.78 166.206 1.98 166.046 2.38C165.886 2.76 165.806 3.66 165.806 5.08V5.92ZM182.64 16.39C182.64 15.97 182.78 15.76 183.06 15.76C183.32 15.76 183.48 15.86 183.54 16.06C183.74 16.54 183.92 16.96 184.08 17.32C184.26 17.66 184.54 18.09 184.92 18.61C185.3 19.11 185.71 19.53 186.15 19.87C186.59 20.19 187.15 20.47 187.83 20.71C188.53 20.95 189.29 21.07 190.11 21.07C191.61 21.07 192.81 20.68 193.71 19.9C194.63 19.1 195.09 18.06 195.09 16.78C195.09 15.84 194.78 15.06 194.16 14.44C193.54 13.8 192.83 13.35 192.03 13.09C191.23 12.81 190.21 12.45 188.97 12.01C187.75 11.55 186.75 11.09 185.97 10.63C184.15 9.55 183.24 8.08 183.24 6.22C183.24 4.44 183.88 3.02 185.16 1.96C186.46 0.879998 188.14 0.339998 190.2 0.339998C190.96 0.339998 191.86 0.509998 192.9 0.849999C193.96 1.17 194.5 1.33 194.52 1.33C194.58 1.33 194.69 1.29 194.85 1.21C195.01 1.13 195.13 1.09 195.21 1.09C195.47 1.09 195.62 1.17 195.66 1.33C196.08 3.75 196.29 5.11 196.29 5.41C196.29 5.97 196.15 6.25 195.87 6.25C195.69 6.25 195.55 6.11 195.45 5.83C195.21 5.25 194.97 4.78 194.73 4.42C194.51 4.06 194.35 3.83 194.25 3.73C194.15 3.63 193.89 3.39 193.47 3.01C192.39 2.05 191.08 1.57 189.54 1.57C188.3 1.57 187.26 1.87 186.42 2.47C185.58 3.07 185.16 3.88 185.16 4.9C185.16 5.8 185.4 6.54 185.88 7.12C186.38 7.7 187.04 8.15 187.86 8.47C188.68 8.79 189.54 9.09 190.44 9.37C191.34 9.65 192.29 10.04 193.29 10.54C194.31 11.04 195.15 11.64 195.81 12.34C196.61 13.2 197.01 14.27 197.01 15.55C197.01 17.65 196.34 19.32 195 20.56C193.66 21.78 192 22.39 190.02 22.39C188.64 22.39 187.53 22.31 186.69 22.15C185.85 22.01 184.99 21.71 184.11 21.25C183.85 21.09 183.54 20.31 183.18 18.91C182.82 17.51 182.64 16.67 182.64 16.39Z" fill="url(#paint0_radial_60_176)"/>
<defs>
<radialGradient id="paint0_radial_60_176" cx="0" cy="0" r="1" gradientUnits="userSpaceOnUse" gradientTransform="translate(99 -0.222223) rotate(90) scale(41.2222 254.087)">
<stop stop-color="#E4BE5A"/>
<stop offset="1" stop-color="#E4BE5A" stop-opacity="0.07"/>
</radialGradient>
</defs>
</svg>
