<svg width="23" height="23" viewBox="0 0 23 23" fill="none" xmlns="http://www.w3.org/2000/svg">
<path fill-rule="evenodd" clip-rule="evenodd" d="M10.7263 0.302476C10.8971 0.151238 11.0679 0 11.2386 0C11.4094 0 11.5802 0.151238 11.751 0.302476C11.8684 0.406429 11.9858 0.510364 12.1031 0.56522V0.566144C13.3129 1.14643 14.43 1.91906 15.4798 2.6451C17.251 3.87014 18.8305 4.96255 20.3394 4.77457C20.3394 4.77457 20.345 5.25613 20.2852 5.57797C20.2255 5.8998 20.0758 6.15586 19.6171 6.21301C19.4828 6.22973 19.2402 6.16538 18.9643 6.06596L22.353 13.3918L22.3539 13.3924L22.3545 13.3926L22.3549 13.3932C22.4349 13.7193 22.4773 14.0603 22.4773 14.4114C22.4773 16.7429 20.6065 18.6329 18.2988 18.6329C15.9911 18.6329 14.1203 16.7429 14.1203 14.4114C14.1203 14.0601 14.1628 13.7189 14.2428 13.3926L14.2425 13.3922L17.8753 5.5977C17.7774 5.55089 17.6908 5.50851 17.6209 5.47389C17.5061 5.41698 17.4366 5.38106 17.4366 5.38106L12.5455 2.88026V20.3797C12.5455 20.3797 14.1946 21.7221 16.8996 21.5126C17.2558 21.485 17.5784 21.7575 17.5784 22.1184V23H4.89889V22.1184C4.89889 21.7575 5.2215 21.485 5.57769 21.5126C8.28271 21.7221 9.93182 20.3797 9.93182 20.3797V2.88026L5.04067 5.38106C5.04067 5.38106 4.86087 5.47393 4.60196 5.5977L8.23477 13.3922L8.23445 13.3926C8.31448 13.7189 8.35694 14.0601 8.35694 14.4114C8.35694 16.7429 6.48617 18.6329 4.17847 18.6329C1.87077 18.6329 0 16.7429 0 14.4114C0 14.0603 0.0424059 13.7193 0.122346 13.3932L0.122627 13.3927L0.123331 13.3924L0.124228 13.3918L3.51294 6.06596C3.23704 6.16538 2.9945 6.22973 2.86021 6.21301C2.40148 6.15586 2.25175 5.8998 2.19204 5.57797C2.13231 5.25613 2.13785 4.77457 2.13785 4.77457C3.64677 4.96255 5.22625 3.87014 6.99752 2.6451C8.04727 1.91906 9.16441 1.14643 10.3741 0.566144V0.56522C10.4915 0.510364 10.6089 0.406429 10.7263 0.302476ZM3.90178 8.06227C4.00439 7.83542 4.32338 7.83542 4.42599 8.06227L6.62732 12.9292C6.71454 13.122 6.57506 13.3413 6.36521 13.3413H1.96254C1.7527 13.3413 1.61322 13.122 1.70044 12.9292L3.90178 8.06227ZM1.44829 14.2437C1.2853 14.2437 1.15338 14.3805 1.17479 14.5438C1.3712 16.0427 2.64114 17.1994 4.17845 17.1994C5.71577 17.1994 6.9857 16.0427 7.18211 14.5438C7.20352 14.3805 7.0716 14.2437 6.90861 14.2437H1.44829ZM18.5755 8.06227C18.4729 7.83542 18.1539 7.83542 18.0513 8.06227L15.85 12.9292C15.7627 13.122 15.9022 13.3413 16.1121 13.3413H20.5147C20.7246 13.3413 20.8641 13.122 20.7768 12.9292L18.5755 8.06227ZM21.029 14.2437C21.192 14.2437 21.3239 14.3805 21.3025 14.5438C21.1061 16.0427 19.8361 17.1994 18.2988 17.1994C16.7615 17.1994 15.4916 16.0427 15.2952 14.5438C15.2738 14.3805 15.4057 14.2437 15.5687 14.2437H21.029Z" fill="#E2E2E2"/>
</svg>
